<?xml version="1.0" standalone="no"?>
<!DOCTYPE svg PUBLIC "-//W3C//DTD SVG 20010904//EN"
 "http://www.w3.org/TR/2001/REC-SVG-20010904/DTD/svg10.dtd">
<svg version="1.0" xmlns="http://www.w3.org/2000/svg"
 width="700.000000pt" height="700.000000pt" viewBox="0 0 700.000000 700.000000"
 preserveAspectRatio="xMidYMid meet">
<metadata>
Created by potrace 1.11, written by Peter Selinger 2001-2013
</metadata>
<g transform="translate(0.000000,700.000000) scale(0.100000,-0.100000)"
fill="#000000" stroke="none">
<path d="M3360 6875 c0 -3 8 -22 19 -43 63 -125 73 -310 27 -488 -28 -109
-101 -268 -179 -394 -159 -253 -367 -471 -853 -895 -256 -223 -568 -532 -794
-785 -49 -55 -191 -229 -232 -285 -20 -27 -42 -56 -49 -63 -29 -34 -191 -287
-241 -377 -64 -113 -147 -285 -178 -366 -11 -30 -25 -63 -30 -74 -33 -72 -122
-392 -135 -490 -3 -22 -8 -51 -10 -65 -15 -86 -20 -167 -20 -335 0 -245 6
-294 64 -555 17 -76 86 -260 132 -353 114 -229 202 -350 389 -537 129 -130
147 -144 280 -240 208 -149 447 -267 701 -349 83 -26 114 -35 204 -57 11 -3
-12 12 -51 34 -341 184 -608 525 -680 866 -39 185 -6 435 84 645 73 174 177
325 326 479 94 97 263 239 272 229 3 -3 1 -21 -4 -39 -27 -86 -34 -201 -17
-283 51 -243 313 -404 561 -344 251 60 383 273 329 533 -23 111 -73 198 -193
335 -141 162 -223 276 -277 386 -98 199 -114 389 -49 584 49 148 151 305 266
409 l26 24 -9 -44 c-53 -234 134 -503 532 -763 56 -37 113 -72 126 -78 12 -5
23 -14 23 -19 0 -4 4 -8 9 -8 5 0 69 -37 143 -82 241 -147 217 -132 559 -362
20 -13 42 -30 50 -38 8 -7 48 -41 89 -75 313 -255 534 -591 606 -917 28 -127
28 -342 0 -481 -55 -277 -224 -533 -487 -737 -99 -76 -253 -170 -359 -218 -41
-18 -77 -35 -80 -37 -7 -6 40 5 140 33 47 14 92 26 100 29 8 2 47 15 85 28
814 286 1437 859 1654 1522 21 66 42 138 45 160 4 22 11 56 16 75 17 63 22
121 25 310 3 186 -4 264 -41 445 -33 166 -143 435 -246 605 -128 210 -325 432
-548 617 -119 99 -316 237 -425 298 -27 16 -81 45 -119 66 l-68 39 7 -28 c25
-91 24 -105 -8 -182 -121 -292 -538 -375 -772 -153 -64 60 -127 162 -159 256
-26 77 -31 114 -31 232 1 112 5 154 29 260 3 11 24 85 46 165 88 307 90 313
109 421 81 444 -93 929 -480 1333 -90 94 -249 235 -249 221z"/>
</g>
</svg>
